<?xml version="1.0" standalone="no"?>
<!DOCTYPE svg PUBLIC "-//W3C//DTD SVG 20010904//EN"
 "http://www.w3.org/TR/2001/REC-SVG-20010904/DTD/svg10.dtd">
<svg version="1.0" xmlns="http://www.w3.org/2000/svg"
 width="522.000000pt" height="522.000000pt" viewBox="0 0 522.000000 522.000000"
 preserveAspectRatio="xMidYMid meet">
<metadata>
Created by potrace 1.14, written by Peter Selinger 2001-2017
</metadata>
<g transform="translate(0.000000,522.000000) scale(0.100000,-0.100000)"
fill="#000000" stroke="none">
<path d="M2581 5187 c-16 -18 -40 -44 -53 -58 -115 -128 -177 -197 -198 -219
-14 -15 -54 -60 -90 -100 -36 -40 -74 -83 -86 -94 l-21 -21 37 -60 c42 -70
103 -194 115 -235 1 -3 11 -38 24 -78 25 -84 52 -212 43 -212 -3 0 -1 -5 4
-10 6 -6 9 -24 6 -40 -4 -29 -5 -28 -44 33 -58 89 -176 202 -299 284 l-106 71
-24 -27 c-57 -65 -167 -186 -196 -217 -18 -19 -33 -37 -33 -40 0 -3 -12 -15
-26 -26 -22 -18 -24 -23 -11 -35 8 -8 20 -16 28 -17 47 -9 179 -94 247 -160
84 -80 190 -222 209 -278 3 -10 9 -18 14 -18 5 0 9 -5 9 -11 0 -5 12 -36 26
-67 15 -31 27 -61 28 -67 1 -5 7 -23 13 -40 19 -48 35 -108 52 -200 35 -183
35 -405 0 -545 -6 -25 -12 -52 -14 -60 -2 -8 -11 -35 -20 -60 -9 -25 -17 -49
-19 -55 -12 -47 -112 -197 -148 -221 -15 -10 -25 -20 -23 -22 5 -5 -48 -42
-95 -66 -46 -23 -107 -45 -150 -54 -58 -11 -250 -5 -267 8 -2 2 -6 3 -10 4
-110 25 -270 123 -383 236 -86 86 -130 136 -130 148 0 5 -9 17 -20 27 -11 10
-20 24 -20 30 0 7 -7 18 -15 25 -30 25 -146 283 -161 359 -3 12 -11 52 -20 87
-31 137 -36 409 -9 544 3 14 9 50 15 80 5 30 21 96 36 145 14 50 26 95 27 100
2 6 6 16 10 22 5 7 10 21 12 32 2 10 14 43 28 72 13 30 28 65 32 79 4 14 11
30 15 35 4 6 29 51 55 100 59 114 222 361 254 385 4 3 22 25 41 50 31 40 32
43 10 29 -14 -9 -36 -22 -50 -30 -14 -8 -27 -16 -30 -19 -3 -3 -32 -23 -64
-45 -33 -22 -64 -44 -70 -50 -6 -5 -45 -37 -86 -70 -110 -89 -301 -283 -365
-371 -11 -16 -28 -36 -37 -46 -10 -10 -18 -22 -18 -27 0 -5 -3 -11 -8 -13 -10
-4 -135 -193 -170 -258 -58 -104 -161 -325 -166 -354 -1 -6 -8 -21 -14 -33 -7
-13 -10 -23 -7 -23 3 0 1 -9 -5 -21 -6 -11 -13 -30 -16 -42 -2 -12 -12 -49
-23 -82 -34 -106 -72 -305 -89 -460 -10 -96 -9 -444 2 -530 13 -109 14 -118
20 -147 9 -40 15 -77 22 -123 4 -22 11 -48 16 -57 4 -10 10 -30 12 -45 5 -37
34 -134 46 -155 6 -10 10 -24 10 -31 0 -33 154 -379 171 -385 5 -2 9 -9 9 -16
0 -7 20 -44 45 -82 24 -38 45 -75 45 -81 0 -7 4 -13 8 -13 4 0 16 -14 26 -32
11 -17 25 -39 32 -47 7 -9 40 -51 74 -94 122 -156 267 -303 400 -407 25 -19
47 -37 50 -41 3 -3 55 -39 115 -81 174 -119 352 -212 530 -278 33 -12 69 -26
80 -31 29 -12 208 -64 254 -73 9 -1 27 -6 41 -9 45 -10 144 -28 185 -33 22 -2
63 -8 90 -11 66 -9 466 -9 530 -1 118 16 188 27 210 32 25 6 73 16 100 21 37
7 60 13 60 15 0 1 10 3 22 6 96 18 411 141 540 211 130 70 307 184 333 214 3
3 21 17 42 30 80 54 239 205 358 339 70 80 210 264 210 276 0 4 11 21 23 38
45 59 197 351 197 378 0 8 4 18 9 23 7 9 76 195 87 235 2 8 8 33 14 55 25 98
47 200 55 260 2 17 4 30 5 30 1 0 3 11 5 25 1 14 6 52 11 85 13 98 8 590 -6
590 -1 0 -3 14 -5 30 -4 49 -25 166 -40 224 -8 30 -12 58 -9 63 3 4 1 8 -4 8
-5 0 -9 6 -9 13 -1 17 -34 140 -41 152 -5 9 -57 151 -65 180 -2 6 -19 44 -39
85 -19 41 -44 93 -54 115 -10 22 -20 42 -23 45 -4 3 -17 25 -30 50 -14 25 -42
71 -63 102 -21 31 -38 60 -38 63 0 3 -5 11 -10 18 -6 7 -36 46 -67 87 -127
169 -273 321 -442 460 -57 47 -210 156 -241 172 -14 7 -28 17 -32 23 -4 5 -9
7 -12 4 -3 -3 5 -16 17 -29 12 -14 46 -57 74 -95 29 -39 57 -75 61 -80 50 -60
142 -218 208 -355 25 -52 50 -103 56 -114 5 -10 11 -26 14 -35 8 -31 60 -176
67 -189 5 -6 6 -12 3 -12 -2 0 0 -15 5 -32 12 -42 28 -113 34 -158 3 -19 8
-51 11 -70 15 -89 20 -298 10 -380 -15 -110 -18 -128 -33 -185 -8 -33 -16 -64
-18 -70 -4 -18 -16 -49 -26 -67 -5 -10 -9 -23 -9 -29 0 -16 -105 -224 -120
-239 -3 -3 -18 -24 -33 -48 -39 -60 -52 -75 -143 -167 -133 -133 -271 -214
-428 -252 -12 -2 -52 -7 -91 -10 -142 -10 -303 46 -404 141 -45 43 -113 128
-117 146 0 3 -15 34 -31 70 -28 59 -48 120 -59 175 -2 11 -6 31 -9 45 -14 64
-19 124 -19 230 0 160 5 202 48 395 3 14 26 87 33 105 4 8 7 17 8 20 6 18 20
51 36 86 11 22 19 46 19 52 0 7 4 12 9 12 5 0 13 10 17 23 13 41 123 192 186
253 73 71 192 153 261 179 52 20 55 24 30 46 -10 8 -41 42 -70 75 -28 32 -62
71 -75 85 -12 14 -48 53 -79 87 -31 34 -60 62 -65 62 -10 0 -159 -97 -199
-130 -66 -54 -185 -183 -213 -231 -28 -48 -30 -50 -34 -25 -3 14 -2 28 1 31 3
4 7 23 8 43 5 117 90 352 180 502 18 30 33 58 33 61 0 7 -60 77 -117 137 -18
18 -33 35 -33 37 0 2 -15 19 -32 37 -26 27 -115 125 -193 212 -5 6 -29 32 -52
58 l-42 47 -30 -32z"/>
</g>
</svg>
